<?xml version="1.0" encoding="UTF-8"?>
<svg width="110px" height="69px" viewBox="0 0 110 69" version="1.1" xmlns="http://www.w3.org/2000/svg" xmlns:xlink="http://www.w3.org/1999/xlink">
    <!-- Generator: Sketch 43.2 (39069) - http://www.bohemiancoding.com/sketch -->
    <title>sign-dark</title>
    <desc>Created with Sketch.</desc>
    <defs></defs>
    <g id="Home" stroke="none" stroke-width="1" fill="none" fill-rule="evenodd">
        <g id="Home---Clasic" transform="translate(-999.000000, -2406.000000)" fill-rule="nonzero" fill="#45545E">
            <g id="Group-5" transform="translate(80.000000, 1658.603000)">
                <g id="Group-23">
                    <path d="M972.318392,782.047532 C972.15869,781.925077 971.998987,781.800473 971.837155,781.678017 C971.632736,781.821956 971.443223,782.0239 971.21751,782.096944 C970.668133,782.277405 970.099592,782.397713 969.53744,782.539503 C969.556604,781.916483 969.50337,781.278425 969.618356,780.67474 C969.690754,780.305224 970.025065,779.987269 970.24226,779.647831 C972.548364,776.042908 974.963066,772.504583 977.113726,768.807281 C978.318947,766.73198 979.042932,764.141076 977.516176,762.072219 C975.934057,759.930319 973.231891,759.874462 970.870423,760.529708 C967.178101,761.550172 963.436805,762.609306 959.968066,764.216268 C949.553335,769.032858 940.205416,775.527305 931.824229,783.497665 C925.80238,789.225153 921.324323,795.732491 920.099937,804.272162 C919.246061,810.229523 922.987358,813.467079 927.936006,814.019204 C936.285252,814.949438 943.442053,811.70114 950.104841,807.107978 C957.478837,802.024993 963.257938,795.300673 968.340736,787.918959 C969.682237,785.972559 970.993926,784.004675 972.318392,782.045384 L972.318392,782.047532 Z M1003.339,770.345496 C998.481919,771.737624 995.232506,775.142751 992.164088,778.80568 C991.929858,778.696114 991.693498,778.5844 991.459268,778.474834 C991.65517,777.757287 991.680722,776.912987 992.083172,776.347973 C993.286265,774.661522 994.67887,773.11901 995.905385,771.451894 C996.346164,770.854654 996.52929,770.059767 996.82953,769.355109 C996.618723,769.176797 996.412175,768.996336 996.201367,768.818023 C994.197633,770.641968 992.087431,772.358496 990.215718,774.315638 C988.150232,776.472577 986.336012,778.874427 984.345054,781.108705 C983.882982,781.626457 983.15048,781.892851 982.539352,782.275257 C982.637303,781.516891 982.496764,780.593103 982.873662,780.032385 C985.041357,776.81846 987.343203,773.699063 989.572649,770.530254 C990.098603,769.78263 990.520217,768.957666 990.988678,768.169223 C990.877951,768.014542 990.767224,767.86201 990.654368,767.707329 C989.647177,768.280937 988.642116,768.8481 987.637055,769.421708 C980.987043,773.209241 976.355671,778.964657 972.239606,785.351687 C966.432823,794.35755 959.797717,802.617937 950.871413,808.717088 C945.562902,812.345643 939.875364,814.927954 933.557533,815.918341 C930.357095,816.418906 927.154528,816.139621 924.205356,814.661559 C920.02328,812.564775 918.481618,808.757907 919.150239,804.053031 C920.52581,794.40911 926.128174,787.457065 932.848454,781.261238 C941.583116,773.213537 951.390978,766.762057 962.191125,761.962654 C966.390236,760.09789 970.71285,758.538192 975.480502,759.174102 C978.346629,759.554359 980.069286,761.26659 980.182143,764.220565 C980.32694,768.02958 978.54466,771.095269 976.496209,774.055688 C975.795648,775.069707 975.131285,776.109506 974.449888,777.136415 C974.613849,777.278206 974.77994,777.422145 974.946031,777.561788 C975.644463,776.861427 976.447234,776.238407 977.026422,775.445668 C979.786081,771.662432 982.488247,767.836229 985.203189,764.01862 C985.356504,763.803786 985.618416,763.511611 985.57157,763.322556 C984.947665,760.830476 987.147301,760.289093 988.365298,759.094613 C991.82126,755.708821 995.253799,752.295101 998.8141,749.023171 C999.601966,748.299179 1000.33234,746.702959 1001.93362,747.734164 C1001.34166,748.660101 1000.93495,749.826652 1000.12792,750.473304 C993.626963,755.685189 988.356781,762.031401 983.572094,768.837358 C983.382581,769.10805 983.169644,769.363703 983.001424,769.645136 C982.899215,769.814855 982.858757,770.023245 982.607491,770.740792 C984.08953,769.827745 985.203189,769.118791 986.338142,768.446359 C987.928778,767.498939 989.500251,766.506404 991.152639,765.683588 C991.729698,765.397858 992.521822,765.56328 993.215995,765.522462 C993.177667,766.209932 993.245807,766.923183 993.073328,767.574131 C992.881685,768.298124 992.474976,768.964111 991.976704,770.064063 C993.586505,769.125236 994.729975,768.351832 995.95862,767.765334 C998.111409,766.738425 998.718279,767.178836 998.637363,769.561351 C998.626716,769.890047 998.605422,770.216596 998.584128,770.676342 C1000.3004,770.008206 1001.86122,769.346516 1003.45825,768.790095 C1006.44149,767.752444 1006.80135,768.02958 1006.53944,771.531383 C1008.12582,770.422837 1009.47797,769.4969 1010.81308,768.545183 C1011.73936,767.885641 1012.51019,766.927479 1013.396,768.77076 C1013.9539,769.937311 1015.92995,769.363703 1017.46309,767.808301 C1020.44208,764.785579 1023.43384,761.780045 1026.45115,758.802438 C1027.04311,758.220237 1027.782,757.794864 1028.45488,757.296448 C1028.63588,757.414607 1028.819,757.532766 1029,757.650925 C1028.75938,758.295429 1028.65504,759.045201 1028.26111,759.569397 C1025.48229,763.249513 1022.19455,766.383948 1018.77691,769.477565 C1014.90785,772.977219 1011.55197,777.114932 1008.24294,781.203233 C1002.73639,788.004893 997.464082,794.999905 992.038456,801.870313 C991.599806,802.426734 990.74593,802.63942 990.083697,803.013232 C990.192295,802.207603 990.100732,801.296704 990.441431,800.613531 C992.472847,796.555307 995.298516,793.135141 998.671432,790.142497 C1000.00016,788.960907 1001.16705,787.583818 1002.34033,786.232509 C1002.64909,785.878032 1002.70232,785.297978 1002.87267,784.823194 C1002.40208,784.655623 1001.91872,784.305443 1001.46729,784.34841 C996.833789,784.773782 992.210934,785.330204 987.575304,785.708312 C984.602708,785.948927 981.613077,785.983301 978.629835,786.024119 C978.120916,786.030564 977.607739,785.60734 976.52815,785.134704 C977.70356,784.730815 978.280619,784.391377 978.876841,784.34841 C987.108972,783.75117 995.347491,783.229122 1003.57536,782.580322 C1004.43776,782.511575 1005.47689,781.976637 1006.0433,781.31065 C1008.25145,778.719746 1010.3361,776.017128 1012.37817,773.284433 C1012.76571,772.764533 1012.74868,771.92453 1012.9169,771.232763 C1012.00766,771.022225 1010.98982,770.44432 1010.20834,770.682787 C1008.91794,771.075934 1007.82984,772.100694 1006.57138,772.667858 C1003.2006,774.186738 1003.07709,774.07932 1003.34113,770.345496 L1003.339,770.345496 Z" id="sign-dark"></path>
                </g>
            </g>
        </g>
    </g>
</svg>